<?xml version="1.0" standalone="no"?>
<!DOCTYPE svg PUBLIC "-//W3C//DTD SVG 20010904//EN"
 "http://www.w3.org/TR/2001/REC-SVG-20010904/DTD/svg10.dtd">
<svg version="1.0" xmlns="http://www.w3.org/2000/svg"
 width="280.000000pt" height="280.000000pt" viewBox="0 0 280.000000 280.000000"
 preserveAspectRatio="xMidYMid meet">
<metadata>
Created by potrace 1.14, written by Peter Selinger 2001-2017
</metadata>
<g transform="translate(0.000000,280.000000) scale(0.100000,-0.100000)"
fill="#000000" stroke="none">
<path d="M382 2704 c-17 -54 -42 -138 -56 -185 -44 -155 -102 -471 -77 -429 5
8 12 44 15 79 8 72 93 416 132 534 14 42 24 82 22 89 -2 6 -18 -33 -36 -88z"/>
<path d="M1180 2658 c-51 -79 -96 -144 -101 -146 -4 -2 -5 -10 -2 -19 4 -10 2
-14 -4 -10 -13 8 -179 -180 -169 -190 3 -4 6 -3 6 2 0 4 7 2 15 -5 10 -9 15
-9 15 -1 0 6 -5 11 -11 11 -6 0 7 20 28 44 21 24 40 42 42 40 2 -2 -2 -10 -9
-19 -7 -9 -10 -18 -8 -21 3 -3 16 10 29 28 12 18 32 44 45 58 12 14 37 52 54
85 18 33 65 108 106 168 41 59 74 110 74 112 0 23 -32 -16 -110 -137z m-129
-211 l-23 -22 17 28 c10 15 20 25 23 22 3 -3 -5 -16 -17 -28z"/>
<path d="M1365 2723 c-53 -110 -67 -143 -57 -143 11 0 107 208 100 215 -2 3
-22 -30 -43 -72z"/>
<path d="M1840 2780 c-19 -11 -63 -29 -98 -40 -34 -12 -60 -26 -57 -31 6 -9
136 35 200 69 35 19 37 21 15 21 -14 0 -41 -8 -60 -19z"/>
<path d="M2102 2739 c-24 -32 -50 -59 -57 -59 -8 0 -16 -9 -20 -19 -9 -29
-295 -278 -295 -258 0 3 -30 -8 -67 -24 -36 -17 -94 -39 -127 -49 -65 -20
-196 -44 -203 -36 -2 2 8 16 22 30 33 33 77 136 58 136 -7 0 -43 -76 -43 -93
0 -4 -18 -24 -41 -44 -35 -32 -39 -38 -25 -48 24 -18 200 19 332 69 114 44
187 90 281 179 l52 49 71 -17 c38 -9 70 -19 70 -21 0 -35 -90 -173 -156 -238
-25 -26 -43 -50 -40 -53 13 -14 132 126 180 210 26 48 52 87 57 87 4 0 6 10 4
22 -3 12 -1 26 4 32 14 17 73 197 67 203 -3 3 -8 0 -10 -8 -2 -8 -12 -39 -22
-69 -9 -30 -23 -68 -31 -85 -12 -28 -13 -23 -9 50 l5 80 -19 -90 c-11 -49 -19
-91 -20 -92 0 -1 -13 2 -30 7 -33 10 -42 -5 -9 -15 29 -10 17 -17 -15 -9 -14
3 -23 10 -20 15 3 5 2 9 -3 8 -4 -1 -16 -1 -26 0 -21 1 -15 11 76 119 52 61
73 92 60 91 -4 0 -27 -27 -51 -60z"/>
<path d="M2740 2785 c0 -8 4 -15 10 -15 5 0 7 7 4 15 -4 8 -8 15 -10 15 -2 0
-4 -7 -4 -15z"/>
<path d="M2743 2698 c-16 -84 -48 -180 -85 -254 l-31 -61 -33 10 c-39 12 -39
11 -19 67 8 23 15 45 15 49 0 3 -34 -62 -74 -145 -81 -164 -67 -149 -173 -191
-30 -12 -9 14 32 40 25 16 45 33 45 38 0 14 -4 12 -67 -30 -32 -21 -69 -42
-83 -47 -22 -7 -20 -9 23 -15 47 -7 126 11 159 38 7 6 38 22 69 37 61 28 106
84 153 186 30 65 76 222 76 257 0 14 4 21 10 18 6 -4 9 -62 7 -153 -3 -113 -8
-159 -23 -199 -21 -59 -29 -64 -45 -29 -7 15 -17 22 -26 19 -11 -4 -9 -11 11
-32 l26 -27 -60 -118 c-33 -65 -81 -152 -107 -193 -38 -60 -48 -71 -54 -55 -4
10 -21 31 -37 47 -28 26 -29 30 -14 43 9 7 11 11 5 7 -21 -10 -15 17 9 42 29
31 21 35 -25 13 -28 -14 -45 -16 -67 -10 -17 5 -46 4 -67 -1 -83 -21 -143 -41
-149 -50 -7 -13 -1 -12 53 10 109 42 144 32 52 -15 -29 -14 -68 -41 -88 -61
-34 -33 -34 -34 -10 -28 24 6 26 4 27 -30 1 -29 -3 -38 -24 -47 -20 -9 -27 -9
-33 0 -14 22 -59 -35 -70 -89 -19 -87 -10 -135 32 -170 30 -25 44 -24 51 6 4
14 13 25 21 25 8 0 15 5 15 10 0 16 -27 12 -34 -5 -15 -40 -63 7 -64 63 -1 53
21 73 46 43 18 -23 52 -21 52 4 0 6 8 19 18 28 16 15 19 15 30 -3 10 -17 9
-18 -6 -14 -16 5 -16 5 0 -6 16 -10 16 -12 0 -29 -42 -44 -51 -60 -40 -67 7
-4 14 -2 16 5 3 8 12 21 21 30 29 30 89 155 96 203 8 51 25 74 50 65 8 -4 17
-2 20 3 4 6 -1 10 -9 10 -9 0 -16 5 -16 10 0 14 36 12 47 -2 5 -7 9 -41 8 -75
0 -35 2 -63 5 -63 15 0 51 50 45 61 -5 7 -3 10 6 7 8 -3 13 -12 13 -20 -1 -10
5 -14 17 -11 11 3 19 12 19 20 0 17 23 53 75 118 22 28 60 87 85 132 25 45 48
83 52 83 4 0 0 -20 -9 -46 -20 -59 -10 -68 15 -12 18 40 32 104 38 173 1 17 9
84 19 150 17 125 14 204 -10 263 -8 17 -15 32 -17 32 -2 0 -9 -28 -15 -62z
m-163 -319 c0 -5 7 -9 15 -9 12 0 14 -7 9 -27 -13 -57 -41 -83 -119 -113 -24
-9 -23 -6 20 80 33 64 50 87 60 83 8 -3 15 -9 15 -14z m-230 -363 c0 -7 -11
-16 -25 -18 -21 -4 -23 -3 -14 13 11 22 39 25 39 5z m-80 -101 c0 -4 -7 -19
-15 -35 -12 -24 -13 -34 -3 -49 9 -14 9 -26 -2 -50 -13 -33 -29 -41 -31 -16
-3 46 -2 61 3 70 3 6 8 27 12 48 4 23 13 37 21 37 8 0 15 -2 15 -5z"/>
<path d="M1785 2619 l-60 -6 76 -1 c42 -1 92 -5 110 -8 19 -4 31 -3 27 1 -13
13 -89 20 -153 14z"/>
<path d="M740 2528 c-16 -29 -37 -74 -46 -100 -8 -27 -21 -48 -28 -48 -19 0
-31 -33 -52 -142 -15 -77 -22 -98 -35 -98 -49 0 -71 64 -85 253 -4 48 -10 87
-14 87 -22 0 -16 -189 10 -308 9 -38 9 -56 1 -66 -6 -7 -8 -15 -5 -18 7 -8
-37 -58 -51 -58 -32 0 -82 -108 -92 -200 -3 -30 -9 -56 -14 -58 -5 -2 -2 -10
6 -19 8 -8 15 -22 15 -32 0 -19 56 -112 74 -123 6 -4 11 -13 12 -20 3 -43 4
-44 14 -28 9 13 13 11 29 -9 12 -16 20 -20 23 -11 3 9 15 5 42 -14 21 -14 45
-26 53 -26 8 0 24 -9 36 -20 13 -13 30 -19 42 -16 14 4 38 -7 70 -30 46 -32
50 -33 57 -15 14 39 32 345 21 376 -8 24 -11 -5 -16 -130 -6 -150 -8 -161 -29
-177 -26 -20 -43 -23 -32 -7 4 7 -5 10 -27 8 -67 -6 -281 127 -334 207 -12 18
-19 52 -21 96 -3 77 1 98 22 98 8 0 14 8 14 18 0 9 9 28 20 42 26 33 25 52 0
21 -24 -28 -27 -10 -4 24 16 25 42 36 28 13 -5 -9 -2 -8 9 1 10 8 15 16 13 19
-9 8 14 41 27 38 6 -1 9 -1 4 1 -12 8 3 23 23 23 10 0 22 4 25 10 3 6 -1 7 -9
4 -9 -3 -16 -1 -16 5 0 17 28 25 44 12 7 -6 16 -8 19 -4 4 3 7 1 7 -5 0 -6 21
-33 48 -61 30 -31 56 -72 72 -113 22 -54 25 -59 28 -35 5 41 -31 111 -98 194
-20 25 -21 62 -2 109 11 27 37 103 57 169 21 66 48 141 61 168 33 63 22 60
-16 -5z m56 -1093 c-2 -17 -7 -18 -31 -9 -14 6 -13 8 2 19 21 15 32 11 29 -10z"/>
<path d="M1227 2458 c-24 -35 -72 -89 -106 -120 -33 -32 -61 -62 -61 -67 0
-11 138 44 155 61 10 11 -22 6 -62 -9 -11 -4 -4 9 19 35 47 52 113 151 106
158 -3 3 -26 -23 -51 -58z"/>
<path d="M1345 2436 c-38 -34 -81 -69 -94 -79 -42 -28 -18 -28 26 1 51 34 145
121 141 131 -2 5 -34 -20 -73 -53z"/>
<path d="M877 2398 c-18 -29 -42 -61 -51 -71 -10 -9 -16 -22 -14 -28 2 -6 28
23 57 65 29 43 51 80 48 82 -3 3 -21 -18 -40 -48z"/>
<path d="M2271 2418 c-5 -13 -20 -56 -32 -96 -16 -52 -32 -81 -52 -98 -39 -32
-45 -24 -15 18 28 37 53 96 46 104 -3 2 -11 -10 -18 -28 -18 -44 -77 -117
-106 -130 -13 -6 -24 -16 -24 -21 0 -9 20 -7 66 8 16 5 23 2 26 -13 4 -15 12
-18 37 -14 17 2 34 8 37 13 3 5 -10 6 -28 2 l-33 -6 28 32 c15 18 30 45 33 59
6 27 42 156 49 180 8 21 -5 13 -14 -10z"/>
<path d="M1574 2394 c-18 -14 -18 -15 4 -4 12 6 22 13 22 15 0 8 -5 6 -26 -11z"/>
<path d="M411 2384 c0 -11 3 -14 6 -6 3 7 2 16 -1 19 -3 4 -6 -2 -5 -13z"/>
<path d="M2175 2344 c-19 -15 -22 -21 -9 -15 18 9 52 41 43 41 -2 0 -17 -12
-34 -26z"/>
<path d="M1480 2350 c-13 -8 -13 -10 2 -10 9 0 20 5 23 10 8 13 -5 13 -25 0z"/>
<path d="M1430 2330 c-8 -5 -10 -10 -5 -10 6 0 17 5 25 10 8 5 11 10 5 10 -5
0 -17 -5 -25 -10z"/>
<path d="M2092 2289 c-13 -16 -27 -27 -32 -24 -4 3 -29 -4 -55 -15 -26 -11
-64 -20 -86 -20 -21 0 -39 -4 -39 -10 0 -15 40 -12 96 6 27 8 59 17 70 19 32
5 62 23 74 45 22 41 4 41 -28 -1z"/>
<path d="M884 2253 c-10 -18 -22 -33 -25 -33 -15 0 -44 -38 -46 -60 -2 -23 -2
-23 11 5 8 17 18 29 23 27 8 -2 27 13 51 43 7 8 12 23 9 33 -3 13 -8 10 -23
-15z"/>
<path d="M747 2238 c-4 -14 -30 -47 -58 -72 -29 -26 -50 -49 -47 -52 3 -2 28
16 57 42 l51 46 0 -41 c0 -28 -5 -44 -15 -47 -8 -4 -15 -13 -15 -21 0 -10 6
-13 16 -9 13 5 15 2 11 -15 -3 -12 2 -45 12 -73 10 -28 24 -77 31 -109 8 -32
18 -61 23 -64 11 -6 9 5 -22 148 -11 53 -24 141 -29 195 -5 69 -10 91 -15 72z"/>
<path d="M1495 2230 c-10 -11 -28 -20 -40 -20 -102 0 -301 -62 -372 -115 -17
-14 -38 -25 -47 -25 -8 0 -18 -4 -21 -10 -3 -5 -11 -10 -16 -10 -6 0 -8 4 -5
9 6 9 -54 22 -67 14 -11 -7 38 -43 58 -43 10 0 24 8 31 18 13 16 13 16 14 0 0
-11 -14 -23 -35 -32 -19 -8 -36 -19 -36 -23 -8 -48 -3 -66 19 -74 32 -12 39
-11 20 4 -25 20 -28 42 -6 56 19 12 20 11 15 -8 -3 -12 -1 -21 4 -21 5 0 9 4
9 9 0 5 14 23 31 40 33 33 76 43 65 15 -23 -60 -16 -89 47 -185 23 -36 40 -50
79 -64 38 -14 52 -15 61 -6 9 10 8 16 -7 27 -11 8 -27 14 -36 14 -22 0 -90 76
-91 103 -3 52 4 65 25 48 8 -7 20 -10 26 -6 5 3 10 2 10 -4 0 -5 -4 -13 -10
-16 -18 -11 -11 -35 10 -35 11 0 20 5 20 11 0 6 5 7 13 2 21 -13 39 -12 65 5
14 9 38 17 53 17 24 1 27 -3 26 -31 -1 -18 -6 -32 -11 -31 -6 1 -11 -5 -11
-13 0 -8 -8 -18 -17 -22 -19 -8 -24 -33 -8 -43 17 -10 49 14 56 43 4 15 18 44
31 65 33 53 43 179 16 209 -17 20 -17 20 22 13 22 -4 49 -12 60 -18 11 -6 29
-12 39 -14 11 -2 27 -10 36 -18 36 -33 32 -12 -5 26 -22 22 -32 37 -22 34 13
-5 17 -2 17 14 0 11 10 26 22 32 24 13 57 49 58 63 0 5 -8 2 -18 -7 -12 -11
-29 -14 -62 -11 -42 5 -43 5 -21 -8 69 -37 -1 -71 -89 -43 -39 12 -19 23 40
21 33 -2 60 1 60 5 0 11 -68 21 -93 13 -22 -7 -22 -6 -3 15 11 11 17 23 14 26
-3 3 -13 -4 -23 -15z m-95 -60 c0 -5 -5 -10 -11 -10 -5 0 -7 5 -4 10 3 6 8 10
11 10 2 0 4 -4 4 -10z m-75 -10 c-3 -5 -14 -10 -23 -9 -14 0 -13 2 3 9 27 11
27 11 20 0z m65 -91 c7 -12 2 -22 -15 -37 -23 -21 -36 -17 -16 4 11 11 2 64
-11 64 -5 0 -6 5 -2 12 7 11 23 -4 44 -43z m48 -18 c-2 -19 -8 -36 -15 -38 -8
-3 -9 6 -3 34 6 23 5 42 0 47 -6 6 -10 15 -10 21 0 5 7 1 16 -10 8 -11 14 -35
12 -54z m-128 23 c0 -22 -32 -63 -51 -64 -12 0 -28 49 -22 69 4 16 13 21 39
21 30 0 34 -3 34 -26z m-130 -4 c0 -5 -5 -10 -11 -10 -5 0 -7 5 -4 10 3 6 8
10 11 10 2 0 4 -4 4 -10z m-86 -8 c3 -5 -1 -9 -9 -9 -8 0 -12 4 -9 9 3 4 7 8
9 8 2 0 6 -4 9 -8z m66 -41 c0 -6 -4 -13 -10 -16 -5 -3 -10 1 -10 9 0 9 5 16
10 16 6 0 10 -4 10 -9z m140 -15 c0 -3 -4 -8 -10 -11 -5 -3 -10 -1 -10 4 0 6
5 11 10 11 6 0 10 -2 10 -4z m-83 -38 c-3 -7 -5 -2 -5 12 0 14 2 19 5 13 2 -7
2 -19 0 -25z m194 -1 c-10 -9 -11 -8 -5 6 3 10 9 15 12 12 3 -3 0 -11 -7 -18z"/>
<path d="M290 2192 c0 -74 51 -202 81 -202 5 0 1 17 -10 38 -10 20 -22 48 -26
62 -7 22 -6 23 9 11 9 -7 16 -10 16 -5 0 18 -53 134 -62 134 -4 0 -8 -17 -8
-38z"/>
<path d="M2788 2154 c-5 -4 -8 -26 -8 -49 0 -22 -6 -65 -14 -95 -19 -77 -27
-135 -17 -124 29 30 67 297 39 268z"/>
<path d="M813 2045 c0 -22 2 -30 4 -17 2 12 2 30 0 40 -3 9 -5 -1 -4 -23z"/>
<path d="M241 2054 c0 -11 3 -14 6 -6 3 7 2 16 -1 19 -3 4 -6 -2 -5 -13z"/>
<path d="M2688 1986 c-38 -48 -103 -114 -153 -154 l-87 -70 -1 -85 c-1 -47 1
-83 4 -79 6 6 18 93 19 133 0 9 36 47 81 85 73 62 166 171 198 232 20 38 7 25
-61 -62z"/>
<path d="M240 1989 c0 -49 19 -119 33 -119 5 0 7 12 3 28 -3 15 -9 49 -12 75
-9 61 -24 71 -24 16z"/>
<path d="M2453 1973 c9 -9 20 -13 24 -9 4 4 1 11 -7 16 -25 16 -35 11 -17 -7z"/>
<path d="M825 1945 c16 -96 35 -148 113 -309 15 -29 -23 14 -57 67 -44 66 -55
73 -19 10 50 -87 124 -173 181 -210 54 -34 69 -23 19 14 -87 63 -171 212 -212
373 -24 93 -36 118 -25 55z"/>
<path d="M505 1950 c-10 -11 -14 -20 -9 -20 16 0 64 24 64 33 0 15 -38 6 -55
-13z"/>
<path d="M2783 1911 c-7 -12 -13 -27 -13 -35 0 -41 -135 -231 -218 -307 -75
-69 -119 -96 -167 -103 -38 -7 -36 -5 27 27 37 19 85 49 107 66 69 55 199 243
189 273 -2 6 -17 -11 -33 -38 -81 -140 -202 -259 -302 -296 -42 -16 -44 -16
-38 0 4 9 14 37 22 62 18 53 33 72 34 45 3 -74 19 -102 19 -34 0 25 -5 50 -11
56 -7 7 -6 21 5 48 19 44 19 45 6 45 -10 0 -100 -182 -120 -245 -39 -122 -110
-217 -198 -265 -96 -52 -396 -180 -423 -180 -10 0 -44 11 -75 25 -31 14 -58
25 -60 25 -8 0 -44 -95 -44 -115 0 -12 -7 -39 -15 -58 -8 -20 -16 -65 -17 -99
-1 -56 2 -66 28 -95 40 -47 63 -42 25 4 -17 21 -31 47 -31 58 0 35 51 229 65
248 12 17 16 17 50 3 52 -22 86 -20 147 8 29 13 94 40 143 59 l90 35 33 -35
c23 -26 31 -42 27 -57 -5 -15 -4 -17 3 -8 7 11 11 8 15 -10 3 -12 26 -88 51
-168 41 -126 54 -175 81 -298 5 -20 3 -22 -21 -16 -17 5 -25 3 -23 -4 4 -12
117 -102 129 -102 4 0 14 -18 23 -41 15 -38 15 -43 0 -63 -19 -25 -76 -70
-229 -181 -107 -77 -133 -102 -96 -93 12 4 22 3 22 -1 0 -12 -33 -38 -55 -44
-13 -3 -9 -5 12 -6 28 -1 36 5 58 43 18 31 57 66 138 124 61 44 125 94 141
111 33 34 46 39 46 16 0 -8 7 -15 15 -15 9 0 30 -16 48 -36 39 -44 117 -156
117 -167 0 -18 33 -77 42 -77 6 0 4 10 -5 23 -8 12 -18 37 -21 55 -4 17 -12
32 -17 32 -5 0 -9 7 -9 15 0 8 -4 15 -10 15 -5 0 -10 5 -10 11 0 14 -29 52
-86 110 -32 34 -46 59 -52 90 -5 24 -20 60 -34 80 -13 21 -40 76 -59 124 -40
104 -51 98 -15 -7 32 -92 32 -97 2 -69 -18 17 -25 37 -30 87 -10 101 -149 544
-171 544 -7 0 -18 6 -24 14 -10 12 -2 19 43 39 136 62 179 106 234 237 18 43
21 45 58 44 l39 -1 -1 -109 c-1 -93 -5 -117 -26 -164 -14 -30 -37 -69 -51 -86
-29 -34 -33 -44 -17 -44 31 0 112 134 136 225 17 68 17 95 0 40 -13 -39 -13
-38 -14 50 l0 90 46 26 c142 80 349 342 340 429 -3 29 -4 30 -15 11z"/>
<path d="M0 1910 c0 -12 93 -60 117 -60 10 0 -9 16 -42 35 -64 37 -75 41 -75
25z"/>
<path d="M980 1890 c0 -5 4 -10 9 -10 5 0 18 -3 28 -6 16 -5 16 -4 -1 10 -23
18 -36 20 -36 6z"/>
<path d="M660 1865 c17 -24 20 -38 15 -71 -7 -48 1 -74 23 -74 9 0 26 -10 39
-22 13 -12 23 -17 23 -11 0 5 -14 21 -30 33 -19 14 -30 32 -29 44 3 46 -2 63
-32 96 -24 28 -26 29 -9 5z"/>
<path d="M180 1869 c0 -8 5 -20 10 -25 12 -12 3 -47 -10 -39 -18 11 -43 -36
-42 -81 0 -59 -22 -111 -87 -199 -28 -38 -51 -78 -51 -89 0 -23 1 -22 56 54
79 107 115 162 124 185 18 46 61 107 74 102 8 -3 11 4 8 24 -4 30 6 37 24 19
8 -8 15 -6 23 4 10 12 6 16 -24 26 -27 9 -40 9 -48 1 -8 -8 -17 -5 -34 11 -17
16 -23 18 -23 7z m14 -104 c-20 -25 -37 -45 -38 -45 -2 0 -1 14 2 30 2 17 6
29 9 26 3 -2 13 4 24 15 37 37 40 18 3 -26z"/>
<path d="M1035 1859 c-11 -17 1 -21 15 -4 8 9 8 15 2 15 -6 0 -14 -5 -17 -11z"/>
<path d="M1326 1764 c-22 -22 -20 -34 6 -34 12 0 18 3 15 7 -4 3 -2 12 4 19
16 19 -7 27 -25 8z"/>
<path d="M1382 1749 c2 -7 10 -15 17 -17 8 -3 12 1 9 9 -2 7 -10 15 -17 17 -8
3 -12 -1 -9 -9z"/>
<path d="M845 1635 c3 -44 1 -114 -5 -155 -5 -41 -12 -94 -15 -117 -3 -23 -10
-52 -15 -65 -9 -20 -10 -18 -5 12 8 60 -11 11 -29 -73 -12 -51 -29 -94 -52
-128 -41 -61 -43 -71 -8 -38 50 47 106 167 120 254 6 43 7 44 47 47 22 2 42 8
44 15 3 8 -8 10 -38 6 l-42 -6 6 33 c4 18 7 44 7 58 0 24 2 24 36 -16 19 -23
40 -41 47 -39 6 1 13 -7 14 -18 2 -14 -13 -31 -52 -58 -30 -21 -55 -44 -55
-53 0 -10 18 -2 58 25 l57 40 3 -25 c5 -35 -25 -281 -40 -326 -24 -78 -93 -93
-178 -40 -30 19 -57 38 -60 42 -15 21 -83 20 -140 -1 -33 -12 -63 -19 -66 -16
-4 3 -1 29 6 58 23 96 -6 415 -41 454 -13 13 -11 -14 7 -97 19 -91 26 -254 13
-333 -9 -60 -61 -239 -83 -284 -6 -13 -31 -47 -56 -74 l-45 -51 -6 30 c-6 28
-7 27 -8 -8 -1 -26 -7 -40 -21 -48 -25 -13 -27 -42 -3 -38 15 3 19 -8 24 -72
11 -128 52 -241 126 -342 39 -53 143 -128 179 -128 37 0 29 13 -21 34 -60 24
-152 116 -192 191 -36 69 -68 181 -78 272 l-7 63 46 52 c49 56 118 181 135
245 10 35 16 41 63 57 95 34 131 27 233 -41 56 -38 127 -100 190 -165 152
-158 260 -247 467 -383 103 -69 224 -154 268 -190 44 -35 80 -61 80 -56 0 14
-95 97 -169 148 -2 2 20 29 49 60 108 119 111 123 95 123 -8 0 -23 -10 -33
-21 -25 -32 -102 -122 -118 -138 -12 -13 -16 -13 -31 1 -10 9 -88 62 -173 118
-85 57 -189 131 -230 165 -82 68 -210 212 -223 251 -5 13 -16 24 -24 24 -9 0
-13 3 -9 8 4 4 13 7 19 7 25 0 78 276 81 416 l1 67 39 -36 c67 -60 51 -19 -21
56 -37 38 -80 83 -94 99 -15 15 -34 34 -43 41 -12 9 -16 30 -17 80 0 37 -5 76
-10 87 -6 13 -7 -6 -4 -60z m35 -745 c0 -5 -2 -10 -4 -10 -3 0 -8 5 -11 10 -3
6 -1 10 4 10 6 0 11 -4 11 -10z"/>
<path d="M510 1680 c0 -5 4 -10 8 -10 5 0 33 -18 62 -40 29 -22 63 -40 74 -39
20 0 20 1 2 12 -151 97 -146 94 -146 77z"/>
<path d="M760 1640 c0 -19 3 -21 12 -12 9 9 9 15 0 24 -9 9 -12 7 -12 -12z"/>
<path d="M2145 1560 c-3 -6 1 -13 10 -16 19 -8 30 0 20 15 -8 14 -22 14 -30 1z"/>
<path d="M575 1399 c7 -20 85 -84 85 -71 0 6 -12 18 -27 27 -16 10 -36 27 -46
39 -11 14 -15 15 -12 5z"/>
<path d="M380 1355 c0 -10 9 -43 20 -74 12 -31 27 -90 35 -131 l15 -75 -5 70
c-6 87 -65 279 -65 210z"/>
<path d="M675 1310 c3 -5 11 -10 16 -10 6 0 7 5 4 10 -3 6 -11 10 -16 10 -6 0
-7 -4 -4 -10z"/>
<path d="M710 1301 c0 -5 7 -12 16 -15 14 -5 15 -4 4 9 -14 17 -20 19 -20 6z"/>
<path d="M1795 1269 c-19 -12 -24 -19 -14 -19 9 0 27 9 40 20 30 25 13 25 -26
-1z"/>
<path d="M355 1163 c-10 -54 -21 -116 -27 -138 -5 -22 -11 -49 -13 -60 -8 -47
-48 -201 -57 -217 -13 -26 -1 -22 43 13 46 36 108 155 115 220 5 43 5 42 -19
-21 -18 -51 -92 -180 -102 -180 -3 0 32 149 39 167 3 7 18 13 33 14 l28 0 -25
12 c-14 6 -26 11 -27 12 -1 0 4 32 13 70 16 80 30 205 21 205 -3 0 -13 -44
-22 -97z"/>
<path d="M1915 1053 c-7 -40 -86 -223 -96 -223 -11 0 19 167 35 199 9 17 12
31 6 31 -12 0 -70 -114 -101 -201 -22 -64 -24 -67 -48 -58 -33 13 -106 2 -163
-23 -50 -22 -59 -34 -33 -45 20 -7 105 25 112 43 8 20 63 17 101 -6 18 -11 56
-39 84 -61 55 -43 232 -133 283 -144 l30 -6 -23 17 c-12 9 -65 36 -117 59 -79
36 -195 107 -195 120 0 6 82 115 87 115 6 0 -18 -43 -45 -78 -26 -34 -23 -54
6 -36 20 13 90 216 99 287 7 57 -11 65 -22 10z m-115 -210 c-3 -25 -11 -48
-17 -51 -7 -2 -13 3 -13 11 0 14 28 87 33 87 2 0 0 -21 -3 -47z"/>
<path d="M2044 880 c10 -105 27 -137 25 -47 -1 72 -12 140 -24 144 -7 2 -7
-31 -1 -97z"/>
<path d="M1615 625 c44 -37 111 -65 165 -72 40 -5 56 -13 91 -49 45 -46 59
-53 59 -31 0 17 -148 163 -156 154 -4 -4 3 -19 17 -34 21 -23 22 -25 4 -18
-11 4 -42 12 -70 18 -27 6 -64 21 -81 34 -41 31 -67 29 -29 -2z"/>
<path d="M202 538 c-45 -140 -82 -350 -82 -465 0 -83 19 -102 21 -20 1 74 7
134 19 192 5 28 12 64 15 80 2 17 10 51 16 77 l12 46 32 -72 c17 -39 46 -98
65 -129 19 -32 42 -70 50 -84 18 -30 123 -134 129 -127 2 2 -5 14 -17 27 -59
63 -139 185 -193 293 -57 115 -60 124 -50 160 13 48 -3 69 -17 22z"/>
<path d="M0 449 c0 -16 4 -28 9 -25 8 5 3 56 -5 56 -2 0 -4 -14 -4 -31z"/>
<path d="M1781 433 c41 -47 82 -82 131 -115 56 -36 56 -33 -2 -175 -43 -106
-35 -113 15 -14 40 81 65 171 65 237 0 60 -9 75 -38 67 -21 -5 -22 -7 -7 -29
16 -25 21 -84 6 -84 -5 0 -14 7 -21 15 -7 8 -18 15 -24 15 -6 0 -39 25 -73 55
-65 59 -92 73 -52 28z"/>
<path d="M200 355 c-6 -119 23 -249 72 -321 36 -53 52 -41 17 13 -39 63 -68
160 -78 264 -5 53 -9 69 -11 44z"/>
<path d="M5 226 c3 -60 5 -129 5 -153 0 -23 5 -43 10 -43 14 0 11 106 -5 215
l-14 90 4 -109z"/>
<path d="M2230 214 c0 -4 25 -32 55 -63 81 -83 90 -98 76 -127 -11 -25 -3 -32
15 -14 23 23 1 71 -63 140 -58 63 -83 82 -83 64z"/>
<path d="M2375 153 c8 -26 15 -60 15 -75 0 -15 5 -30 10 -33 15 -9 12 70 -4
109 -22 54 -37 53 -21 -1z"/>
<path d="M650 171 c-99 -7 -125 -15 -114 -33 4 -6 25 -8 53 -4 109 15 270 18
307 6 28 -10 39 -10 42 -1 2 7 14 9 30 5 22 -5 25 -4 14 7 -7 7 -27 15 -45 16
-105 9 -204 10 -287 4z"/>
<path d="M1020 131 c0 -14 221 -84 300 -95 203 -28 340 -36 340 -20 0 7 -48
13 -137 17 -156 7 -290 32 -413 76 -95 35 -90 34 -90 22z"/>
<path d="M303 120 c-35 -14 -27 -20 10 -8 17 6 34 13 36 14 8 7 -24 3 -46 -6z"/>
<path d="M947 123 c-11 -10 -8 -123 3 -123 6 0 10 28 10 65 0 65 -1 71 -13 58z"/>
<path d="M610 62 c0 -5 7 -15 15 -22 9 -7 14 -18 12 -24 -3 -6 9 -12 26 -13
l30 -2 -24 25 c-28 30 -59 49 -59 36z"/>
<path d="M1730 30 l-65 -7 62 -1 c34 -1 65 3 68 8 3 6 5 9 3 8 -2 -1 -32 -4
-68 -8z"/>
</g>
</svg>
